<svg width="24" height="24" viewBox="0 0 24 24" fill="none" xmlns="http://www.w3.org/2000/svg">
<path d="M18.998 8.00049C20.6549 8.00049 21.998 6.65734 21.998 5.00049C21.998 3.34363 20.6549 2.00049 18.998 2.00049C17.3412 2.00049 15.998 3.34363 15.998 5.00049C15.998 6.65734 17.3412 8.00049 18.998 8.00049Z" fill="#1E3A8A"/>
<path d="M20.342 12.7202H17.032C16.102 12.7202 15.272 13.2402 14.852 14.0602L14.052 15.6402C13.862 16.0202 13.482 16.2502 13.062 16.2502H9.95195C9.66195 16.2502 9.23195 16.1902 8.96195 15.6302L8.17195 14.0602C7.75195 13.2302 6.92195 12.7102 5.99195 12.7102H2.66195C2.30195 12.7202 2.00195 13.0202 2.00195 13.3802V16.4702C2.00195 19.9402 4.07195 22.0002 7.53195 22.0002H15.492C18.752 22.0002 20.762 20.2102 21.002 17.0402V13.3802C21.002 13.0202 20.702 12.7202 20.342 12.7202Z" fill="#1E3A8A"/>
<path d="M21.002 10.4V11.33C20.792 11.26 20.572 11.22 20.342 11.22H17.032C15.532 11.22 14.182 12.05 13.522 13.39L12.822 14.76H10.192L9.51195 13.4C8.83195 12.05 7.49195 11.22 5.99195 11.22H2.66195C2.43195 11.22 2.21195 11.26 2.00195 11.33V8.52C2.00195 5.47 4.47195 3 7.52195 3H13.602C14.242 3 14.702 3.58 14.582 4.2C14.422 5 14.492 5.87 14.882 6.79C15.332 7.83 16.172 8.67 17.212 9.12C18.132 9.51 19.002 9.58 19.802 9.42C20.422 9.3 21.002 9.76 21.002 10.4Z" fill="#1E3A8A"/>
</svg>
