<svg width="24" height="24" viewBox="0 0 24 24" fill="none" xmlns="http://www.w3.org/2000/svg">
<path d="M21.0189 7.99224C21.4167 8.55882 20.9425 9.25049 20.2502 9.25049H3.00195C2.44967 9.25049 2.00195 8.80277 2.00195 8.25049V6.42049C2.00195 3.98049 3.98195 2.00049 6.42195 2.00049H8.74195C10.372 2.00049 10.882 2.53049 11.532 3.40049L12.932 5.26049C13.242 5.67049 13.282 5.72049 13.862 5.72049H16.652C18.4565 5.72049 20.0536 6.61758 21.0189 7.99224Z" fill="#292424" fill-opacity="0.6"/>
<path d="M21.9853 11.7461C21.9835 11.1952 21.5363 10.7495 20.9853 10.7495L3.00195 10.7495C2.44967 10.7495 2.00195 11.1972 2.00195 11.7495V16.6495C2.00195 19.5995 4.40195 21.9995 7.35195 21.9995H16.652C19.602 21.9995 22.002 19.5995 22.002 16.6495L21.9853 11.7461ZM14.542 16.9695L12.392 18.8495C12.282 18.9495 12.142 18.9995 12.002 18.9995C11.862 18.9995 11.722 18.9495 11.612 18.8495L9.46195 16.9695C8.78195 16.3695 8.69195 15.3495 9.26195 14.6395C9.83195 13.9195 10.862 13.7895 11.602 14.3395L12.002 14.6395L12.402 14.3395C13.142 13.7895 14.172 13.9195 14.742 14.6395C15.312 15.3495 15.222 16.3695 14.542 16.9695Z" fill="#292424"/>
</svg>
