<svg width="24" height="24" viewBox="0 0 24 24" fill="none" xmlns="http://www.w3.org/2000/svg">
<path d="M17.002 2.43042H7.00195C4.00195 2.43042 2.00195 4.43042 2.00195 7.43042V13.4304C2.00195 16.4304 4.00195 18.4304 7.00195 18.4304V20.5604C7.00195 21.3604 7.89195 21.8404 8.55195 21.3904L13.002 18.4304H17.002C20.002 18.4304 22.002 16.4304 22.002 13.4304V7.43042C22.002 4.43042 20.002 2.43042 17.002 2.43042ZM12.002 14.6004C11.582 14.6004 11.252 14.2604 11.252 13.8504C11.252 13.4404 11.582 13.1004 12.002 13.1004C12.422 13.1004 12.752 13.4404 12.752 13.8504C12.752 14.2604 12.422 14.6004 12.002 14.6004ZM13.262 10.4504C12.872 10.7104 12.752 10.8804 12.752 11.1604V11.3704C12.752 11.7804 12.412 12.1204 12.002 12.1204C11.592 12.1204 11.252 11.7804 11.252 11.3704V11.1604C11.252 10.0004 12.102 9.43042 12.422 9.21042C12.792 8.96042 12.912 8.79042 12.912 8.53042C12.912 8.03042 12.502 7.62042 12.002 7.62042C11.502 7.62042 11.092 8.03042 11.092 8.53042C11.092 8.94042 10.752 9.28042 10.342 9.28042C9.93195 9.28042 9.59195 8.94042 9.59195 8.53042C9.59195 7.20042 10.672 6.12042 12.002 6.12042C13.332 6.12042 14.412 7.20042 14.412 8.53042C14.412 9.67042 13.572 10.2404 13.262 10.4504Z" fill="url(#paint0_linear_401_49772)"/>
<defs>
<linearGradient id="paint0_linear_401_49772" x1="2.40039" y1="8.99995" x2="21.9895" y2="12.5604" gradientUnits="userSpaceOnUse">
<stop stop-color="#292424"/>
<stop offset="1" stop-color="#292424" stop-opacity="0.6"/>
</linearGradient>
</defs>
</svg>
