<svg width="27" height="27" viewBox="0 0 27 27" fill="none" xmlns="http://www.w3.org/2000/svg">
<path d="M13.1201 26.2402C20.3662 26.2402 26.2402 20.3662 26.2402 13.1201C26.2402 5.87408 20.3662 0 13.1201 0C5.87408 0 0 5.87408 0 13.1201C0 20.3662 5.87408 26.2402 13.1201 26.2402Z" fill="#D9E1F7"/>
<path d="M4.59226 7.54437C4.59226 7.00092 5.03281 6.56037 5.57626 6.56037H9.5451C9.79777 6.56037 10.0408 6.65756 10.2237 6.83182L11.0313 7.60093C11.2143 7.77518 11.4572 7.87238 11.7099 7.87238H20.6644C21.2079 7.87238 21.6484 8.31293 21.6484 8.85639V19.6805C21.6484 20.3365 21.1236 20.9925 20.3364 20.9925H5.90427C5.11706 20.9925 4.59226 20.3365 4.59226 19.6805V7.54437Z" fill="#17476A"/>
<path d="M10.1684 9.83993H6.88837C6.70722 9.83993 6.56037 9.98679 6.56037 10.1679V13.448C6.56037 13.6291 6.70722 13.776 6.88837 13.776H10.1684C10.3495 13.776 10.4964 13.6291 10.4964 13.448V10.1679C10.4964 9.98679 10.3495 9.83993 10.1684 9.83993Z" fill="#3498DB"/>
<path d="M7.54378 11.3488C7.83362 11.3488 8.06859 11.1138 8.06859 10.824C8.06859 10.5341 7.83362 10.2992 7.54378 10.2992C7.25394 10.2992 7.01898 10.5341 7.01898 10.824C7.01898 11.1138 7.25394 11.3488 7.54378 11.3488Z" fill="#ECF0F1"/>
<path d="M6.62597 12.5393C6.62597 12.47 6.65331 12.4036 6.70203 12.3545L7.70791 11.34C7.81056 11.2364 7.97793 11.2364 8.08059 11.34L8.97618 12.2433C9.07884 12.3468 9.24621 12.3468 9.34887 12.2433L9.98206 11.6046C10.147 11.4382 10.4308 11.555 10.4308 11.7894V13.448C10.4308 13.5929 10.3133 13.7104 10.1684 13.7104H6.88837C6.74345 13.7104 6.62597 13.5929 6.62597 13.448V12.5393Z" fill="#2ECC71"/>
<path d="M15.4161 9.83993H12.136C11.9549 9.83993 11.808 9.98679 11.808 10.1679V13.448C11.808 13.6291 11.9549 13.776 12.136 13.776H15.4161C15.5972 13.776 15.7441 13.6291 15.7441 13.448V10.1679C15.7441 9.98679 15.5972 9.83993 15.4161 9.83993Z" fill="#9B59B6"/>
<path d="M12.7921 13.1201C13.4481 12.6828 14.1041 12.6828 14.7601 13.1201V13.4481C14.1041 13.0108 13.4481 13.0108 12.7921 13.4481V13.1201Z" fill="#ECF0F1"/>
<path d="M10.1684 15.0882H6.88837C6.70722 15.0882 6.56037 15.2351 6.56037 15.4162V18.6963C6.56037 18.8774 6.70722 19.0243 6.88837 19.0243H10.1684C10.3495 19.0243 10.4964 18.8774 10.4964 18.6963V15.4162C10.4964 15.2351 10.3495 15.0882 10.1684 15.0882Z" fill="#E74C3C"/>
<path d="M15.4161 15.0882H12.136C11.9549 15.0882 11.808 15.2351 11.808 15.4162V18.6963C11.808 18.8774 11.9549 19.0243 12.136 19.0243H15.4161C15.5972 19.0243 15.7441 18.8774 15.7441 18.6963V15.4162C15.7441 15.2351 15.5972 15.0882 15.4161 15.0882Z" fill="#1ABC9C"/>
<path d="M13.2235 17.6627V16.9114H13.467C13.5592 16.9114 13.6193 16.9151 13.6474 16.9227C13.6904 16.9339 13.7265 16.9585 13.7555 16.9965C13.7845 17.034 13.7991 17.0827 13.7991 17.1425C13.7991 17.1886 13.7907 17.2274 13.774 17.2589C13.7572 17.2903 13.7359 17.3151 13.7099 17.3332C13.6843 17.3509 13.6581 17.3627 13.6315 17.3685C13.5953 17.3757 13.5428 17.3793 13.4741 17.3793H13.3752V17.6627H13.2235ZM13.3752 17.0385V17.2517H13.4583C13.518 17.2517 13.558 17.2478 13.5782 17.2399C13.5983 17.232 13.6141 17.2197 13.6253 17.203C13.6369 17.1863 13.6428 17.1668 13.6428 17.1446C13.6428 17.1172 13.6347 17.0947 13.6187 17.0769C13.6026 17.0592 13.5823 17.048 13.5577 17.0436C13.5396 17.0402 13.5032 17.0385 13.4485 17.0385H13.3752Z" fill="#ECF0F1"/>
<path d="M13.8852 17.4182L14.0328 17.4039C14.0417 17.4534 14.0596 17.4898 14.0866 17.5131C14.1139 17.5363 14.1506 17.5479 14.1968 17.5479C14.2456 17.5479 14.2824 17.5377 14.307 17.5172C14.3319 17.4963 14.3444 17.4721 14.3444 17.4444C14.3444 17.4266 14.3391 17.4116 14.3285 17.3993C14.3182 17.3866 14.3001 17.3757 14.2742 17.3665C14.2564 17.3603 14.2159 17.3494 14.1527 17.3337C14.0714 17.3135 14.0143 17.2888 13.9815 17.2594C13.9354 17.218 13.9123 17.1676 13.9123 17.1082C13.9123 17.0699 13.9231 17.0342 13.9446 17.0011C13.9665 16.9676 13.9977 16.9421 14.0384 16.9247C14.0794 16.9073 14.1288 16.8986 14.1865 16.8986C14.2808 16.8986 14.3517 16.9192 14.3992 16.9606C14.447 17.0019 14.4722 17.0571 14.4745 17.1261L14.3228 17.1328C14.3164 17.0942 14.3023 17.0665 14.2808 17.0498C14.2596 17.0327 14.2277 17.0241 14.185 17.0241C14.1409 17.0241 14.1064 17.0332 14.0815 17.0513C14.0654 17.0629 14.0574 17.0785 14.0574 17.0979C14.0574 17.1157 14.0649 17.1309 14.0799 17.1435C14.0991 17.1596 14.1455 17.1763 14.2193 17.1938C14.2931 17.2112 14.3476 17.2293 14.3828 17.2481C14.4183 17.2665 14.446 17.292 14.4658 17.3245C14.486 17.3566 14.4961 17.3964 14.4961 17.4439C14.4961 17.4869 14.4841 17.5272 14.4602 17.5648C14.4363 17.6024 14.4025 17.6304 14.3587 17.6489C14.315 17.667 14.2605 17.676 14.1952 17.676C14.1002 17.676 14.0273 17.6542 13.9764 17.6104C13.9255 17.5664 13.8951 17.5023 13.8852 17.4182Z" fill="#ECF0F1"/>
<path d="M14.6232 16.9114H14.9004C14.963 16.9114 15.0106 16.9162 15.0434 16.9257C15.0875 16.9387 15.1253 16.9618 15.1567 16.9949C15.1881 17.0281 15.212 17.0687 15.2284 17.1169C15.2448 17.1647 15.253 17.2238 15.253 17.2942C15.253 17.3561 15.2454 17.4094 15.23 17.4541C15.2112 17.5088 15.1844 17.553 15.1495 17.5869C15.1232 17.6125 15.0877 17.6325 15.0429 17.6468C15.0094 17.6574 14.9647 17.6627 14.9086 17.6627H14.6232V16.9114ZM14.7749 17.0385V17.5361H14.8881C14.9305 17.5361 14.9611 17.5337 14.9799 17.5289C15.0045 17.5228 15.0248 17.5124 15.0409 17.4977C15.0573 17.483 15.0706 17.4589 15.0808 17.4254C15.0911 17.3916 15.0962 17.3456 15.0962 17.2876C15.0962 17.2295 15.0911 17.1849 15.0808 17.1538C15.0706 17.1227 15.0562 17.0984 15.0378 17.081C15.0193 17.0636 14.9959 17.0518 14.9676 17.0457C14.9464 17.0409 14.9049 17.0385 14.843 17.0385H14.7749Z" fill="#ECF0F1"/>
<path d="M13.1201 16.2691C13.2288 16.2691 13.3169 16.181 13.3169 16.0723C13.3169 15.9636 13.2288 15.8755 13.1201 15.8755C13.0114 15.8755 12.9233 15.9636 12.9233 16.0723C12.9233 16.181 13.0114 16.2691 13.1201 16.2691Z" fill="#ECF0F1"/>
<path d="M13.7761 16.2691C13.8848 16.2691 13.9729 16.181 13.9729 16.0723C13.9729 15.9636 13.8848 15.8755 13.7761 15.8755C13.6675 15.8755 13.5793 15.9636 13.5793 16.0723C13.5793 16.181 13.6675 16.2691 13.7761 16.2691Z" fill="#ECF0F1"/>
<path d="M14.4322 16.2691C14.5409 16.2691 14.629 16.181 14.629 16.0723C14.629 15.9636 14.5409 15.8755 14.4322 15.8755C14.3235 15.8755 14.2354 15.9636 14.2354 16.0723C14.2354 16.181 14.3235 16.2691 14.4322 16.2691Z" fill="#ECF0F1"/>
<path d="M20.6644 12.4641H17.3843C17.2032 12.4641 17.0563 12.6109 17.0563 12.7921V16.0721C17.0563 16.2533 17.2032 16.4001 17.3843 16.4001H20.6644C20.8455 16.4001 20.9924 16.2533 20.9924 16.0721V12.7921C20.9924 12.6109 20.8455 12.4641 20.6644 12.4641Z" fill="#F39C12"/>
<path d="M18.3684 13.5793C18.3684 13.5253 18.4301 13.4944 18.4734 13.5269L19.6104 14.3797C19.6454 14.4059 19.6454 14.4584 19.6104 14.4846L18.4734 15.3374C18.4301 15.3699 18.3684 15.339 18.3684 15.285V13.5793Z" fill="#ECF0F1"/>
</svg>
