<svg width="24" height="24" viewBox="0 0 24 24" fill="none" xmlns="http://www.w3.org/2000/svg">
<path d="M9.00195 2.00049C6.38195 2.00049 4.25195 4.13049 4.25195 6.75049C4.25195 9.32049 6.26195 11.4005 8.88195 11.4905C8.96195 11.4805 9.04195 11.4805 9.10195 11.4905C9.12195 11.4905 9.13195 11.4905 9.15195 11.4905C9.16195 11.4905 9.16195 11.4905 9.17195 11.4905C11.732 11.4005 13.742 9.32049 13.752 6.75049C13.752 4.13049 11.622 2.00049 9.00195 2.00049Z" fill="#1E3A8A"/>
<path d="M14.079 14.1496C11.289 12.2896 6.73899 12.2896 3.92898 14.1496C2.65898 14.9996 1.95898 16.1496 1.95898 17.3796C1.95898 18.6096 2.65898 19.7496 3.91898 20.5896C5.31898 21.5296 7.15899 21.9996 8.99899 21.9996C10.839 21.9996 12.679 21.5296 14.079 20.5896C15.339 19.7396 16.039 18.5996 16.039 17.3596C16.029 16.1296 15.339 14.9896 14.079 14.1496Z" fill="#1E3A8A"/>
<path d="M19.9894 7.34059C20.1494 9.28059 18.7694 10.9806 16.8594 11.2106C16.8494 11.2106 16.8494 11.2106 16.8394 11.2106H16.8094C16.7494 11.2106 16.6894 11.2106 16.6394 11.2306C15.6694 11.2806 14.7794 10.9706 14.1094 10.4006C15.1394 9.48059 15.7294 8.10059 15.6094 6.60059C15.5394 5.79059 15.2594 5.05059 14.8394 4.42059C15.2194 4.23059 15.6594 4.11059 16.1094 4.07059C18.0694 3.90059 19.8194 5.36059 19.9894 7.34059Z" fill="#1E3A8A"/>
<path d="M21.9922 16.5897C21.9122 17.5597 21.2922 18.3997 20.2522 18.9697C19.2522 19.5197 17.9922 19.7797 16.7422 19.7497C17.4622 19.0997 17.8822 18.2897 17.9622 17.4297C18.0622 16.1897 17.4722 14.9997 16.2922 14.0497C15.6222 13.5197 14.8422 13.0997 13.9922 12.7897C16.2022 12.1497 18.9822 12.5797 20.6922 13.9597C21.6122 14.6997 22.0822 15.6297 21.9922 16.5897Z" fill="#1E3A8A"/>
</svg>
