<svg width="24" height="24" viewBox="0 0 24 24" fill="none" xmlns="http://www.w3.org/2000/svg">
<path d="M13.003 4.16699C8.12605 4.16699 4.16797 8.12507 4.16797 13.002C4.16797 17.8789 8.12605 21.837 13.003 21.837C17.8799 21.837 21.838 17.8789 21.838 13.002C21.838 8.12507 17.8799 4.16699 13.003 4.16699ZM11.8544 16.6597H8.09071C7.92285 16.6597 7.81681 16.4741 7.90516 16.3239L9.78702 13.1875C9.87537 13.0462 10.0786 13.0462 10.1669 13.1875L12.0488 16.3239C12.1371 16.4741 12.0311 16.6597 11.8544 16.6597ZM11.1211 11.3587C10.9532 11.3587 10.8472 11.1731 10.9356 11.0229L12.8174 7.88653C12.9058 7.74517 13.109 7.74517 13.1973 7.88653L15.0792 11.0229C15.1675 11.1731 15.0615 11.3587 14.8937 11.3587H11.1211ZM17.9152 16.6597H14.1515C13.9836 16.6597 13.8777 16.4741 13.966 16.3239L15.8478 13.1875C15.9362 13.0462 16.1394 13.0462 16.2278 13.1875L18.1096 16.3239C18.1891 16.4741 18.0831 16.6597 17.9152 16.6597Z" fill="#1E3A8A"/>
</svg>
