<svg width="149" height="149" viewBox="0 0 149 149" fill="none" xmlns="http://www.w3.org/2000/svg">
<path d="M74.5 149C115.645 149 149 115.645 149 74.5C149 33.3548 115.645 0 74.5 0C33.3548 0 0 33.3548 0 74.5C0 115.645 33.3548 149 74.5 149Z" fill="#D9E1F7"/>
<path d="M26.075 42.8375C26.075 39.7516 28.5766 37.25 31.6625 37.25H54.1987C55.6335 37.25 57.0132 37.8019 58.0522 38.7913L62.6378 43.1586C63.6767 44.1481 65.0565 44.7 66.4912 44.7H117.337C120.423 44.7 122.925 47.2016 122.925 50.2875V111.75C122.925 115.475 119.945 119.2 115.475 119.2H33.525C29.055 119.2 26.075 115.475 26.075 111.75V42.8375Z" fill="#17476A"/>
<path d="M57.7375 55.875H39.1125C38.0839 55.875 37.25 56.7088 37.25 57.7375V76.3625C37.25 77.3911 38.0839 78.225 39.1125 78.225H57.7375C58.7661 78.225 59.6 77.3911 59.6 76.3625V57.7375C59.6 56.7088 58.7661 55.875 57.7375 55.875Z" fill="#3498DB"/>
<path d="M42.8375 64.4424C44.4833 64.4424 45.8175 63.1082 45.8175 61.4624C45.8175 59.8166 44.4833 58.4824 42.8375 58.4824C41.1917 58.4824 39.8575 59.8166 39.8575 61.4624C39.8575 63.1082 41.1917 64.4424 42.8375 64.4424Z" fill="#ECF0F1"/>
<path d="M37.6225 71.2021C37.6225 70.8092 37.7778 70.4321 38.0544 70.1531L43.7661 64.3922C44.349 63.8042 45.2994 63.8042 45.8823 64.3922L50.9678 69.5215C51.5507 70.1094 52.5011 70.1094 53.084 69.5215L56.6794 65.895C57.6162 64.9501 59.2275 65.6135 59.2275 66.9441V76.3624C59.2275 77.1853 58.5604 77.8524 57.7375 77.8524H39.1125C38.2896 77.8524 37.6225 77.1853 37.6225 76.3624V71.2021Z" fill="#2ECC71"/>
<path d="M87.5375 55.875H68.9125C67.8839 55.875 67.05 56.7088 67.05 57.7375V76.3625C67.05 77.3911 67.8839 78.225 68.9125 78.225H87.5375C88.5662 78.225 89.4 77.3911 89.4 76.3625V57.7375C89.4 56.7088 88.5662 55.875 87.5375 55.875Z" fill="#9B59B6"/>
<path d="M78.225 59.5999V70.7749V59.5999ZM74.5 63.3249V74.4999V63.3249ZM81.95 63.3249V74.4999V63.3249Z" fill="black"/>
<path d="M72.6375 74.4999C76.3625 72.0166 80.0875 72.0166 83.8125 74.4999V76.3624C80.0875 73.8791 76.3625 73.8791 72.6375 76.3624V74.4999Z" fill="#ECF0F1"/>
<path d="M57.7375 85.675H39.1125C38.0839 85.675 37.25 86.5089 37.25 87.5375V106.162C37.25 107.191 38.0839 108.025 39.1125 108.025H57.7375C58.7661 108.025 59.6 107.191 59.6 106.162V87.5375C59.6 86.5089 58.7661 85.675 57.7375 85.675Z" fill="#E74C3C"/>
<path d="M42.8375 91.2624H54.0125H42.8375ZM42.8375 96.8499H54.0125H42.8375ZM42.8375 102.437H50.2875H42.8375Z" fill="black"/>
<path d="M87.5375 85.675H68.9125C67.8839 85.675 67.05 86.5089 67.05 87.5375V106.162C67.05 107.191 67.8839 108.025 68.9125 108.025H87.5375C88.5662 108.025 89.4 107.191 89.4 106.162V87.5375C89.4 86.5089 88.5662 85.675 87.5375 85.675Z" fill="#1ABC9C"/>
<path d="M73.0699 100.615V96.3486H74.4522C74.976 96.3486 75.3175 96.37 75.4766 96.4126C75.721 96.4767 75.9257 96.6163 76.0906 96.8317C76.2555 97.0451 76.338 97.3216 76.338 97.6611C76.338 97.923 76.2904 98.1432 76.1954 98.3217C76.1003 98.5002 75.979 98.6408 75.8316 98.7437C75.6861 98.8446 75.5377 98.9115 75.3863 98.9445C75.1807 98.9852 74.8829 99.0056 74.4929 99.0056H73.9313V100.615H73.0699ZM73.9313 97.0703V98.281H74.4027C74.7422 98.281 74.9692 98.2587 75.0837 98.214C75.1981 98.1694 75.2874 98.0996 75.3514 98.0045C75.4174 97.9094 75.4504 97.7988 75.4504 97.6727C75.4504 97.5175 75.4048 97.3895 75.3136 97.2886C75.2224 97.1877 75.107 97.1247 74.9673 97.0994C74.8644 97.08 74.6578 97.0703 74.3474 97.0703H73.9313Z" fill="#ECF0F1"/>
<path d="M76.8269 99.2268L77.665 99.1453C77.7154 99.4266 77.8173 99.6332 77.9706 99.7651C78.1258 99.8971 78.3343 99.963 78.5962 99.963C78.8737 99.963 79.0822 99.9048 79.2219 99.7884C79.3635 99.6701 79.4344 99.5323 79.4344 99.3752C79.4344 99.2743 79.4043 99.1889 79.3442 99.1191C79.2859 99.0473 79.1831 98.9852 79.0357 98.9328C78.9348 98.8979 78.7049 98.8358 78.346 98.7466C77.8842 98.6321 77.5602 98.4915 77.374 98.3246C77.1121 98.0899 76.9811 97.8037 76.9811 97.4661C76.9811 97.2488 77.0422 97.0461 77.1644 96.8579C77.2886 96.6678 77.4661 96.5232 77.697 96.4243C77.9298 96.3253 78.2102 96.2759 78.538 96.2759C79.0735 96.2759 79.4761 96.3932 79.7458 96.628C80.0174 96.8627 80.16 97.1761 80.1735 97.568L79.3121 97.6058C79.2753 97.3866 79.1957 97.2294 79.0735 97.1344C78.9532 97.0374 78.7718 96.9889 78.5293 96.9889C78.279 96.9889 78.0831 97.0403 77.9415 97.1431C77.8503 97.2091 77.8047 97.2973 77.8047 97.4079C77.8047 97.5088 77.8474 97.5951 77.9327 97.6669C78.0414 97.7581 78.3052 97.8532 78.7243 97.9521C79.1433 98.0511 79.4528 98.1539 79.6526 98.2606C79.8544 98.3654 80.0115 98.5099 80.1241 98.6942C80.2385 98.8766 80.2958 99.1026 80.2958 99.3723C80.2958 99.6167 80.2279 99.8457 80.0921 100.059C79.9563 100.272 79.7642 100.432 79.5158 100.536C79.2675 100.639 78.9581 100.691 78.5875 100.691C78.0482 100.691 77.6339 100.566 77.3449 100.318C77.0558 100.068 76.8831 99.704 76.8269 99.2268Z" fill="#ECF0F1"/>
<path d="M81.0175 96.3486H82.5919C82.9469 96.3486 83.2176 96.3758 83.4038 96.4301C83.6541 96.5038 83.8685 96.6348 84.047 96.823C84.2255 97.0112 84.3613 97.242 84.4544 97.5156C84.5475 97.7872 84.5941 98.1228 84.5941 98.5225C84.5941 98.8737 84.5504 99.1763 84.4631 99.4305C84.3564 99.7409 84.2041 99.9921 84.0062 100.184C83.8568 100.33 83.6551 100.443 83.4009 100.525C83.2108 100.585 82.9566 100.615 82.6385 100.615H81.0175V96.3486ZM81.8789 97.0703V99.8961H82.522C82.7626 99.8961 82.9363 99.8825 83.043 99.8554C83.1826 99.8204 83.2981 99.7613 83.3893 99.6778C83.4824 99.5944 83.5581 99.4576 83.6163 99.2675C83.6745 99.0754 83.7036 98.8145 83.7036 98.4847C83.7036 98.1549 83.6745 97.9017 83.6163 97.7251C83.5581 97.5486 83.4766 97.4108 83.3718 97.3119C83.267 97.2129 83.1341 97.146 82.9731 97.1111C82.8528 97.0839 82.6171 97.0703 82.2659 97.0703H81.8789Z" fill="#ECF0F1"/>
<path d="M72.6375 93.125H83.8125H72.6375Z" fill="black"/>
<path d="M74.5 92.3799C75.1172 92.3799 75.6175 91.8796 75.6175 91.2624C75.6175 90.6453 75.1172 90.1449 74.5 90.1449C73.8828 90.1449 73.3825 90.6453 73.3825 91.2624C73.3825 91.8796 73.8828 92.3799 74.5 92.3799Z" fill="#ECF0F1"/>
<path d="M78.225 92.3799C78.8422 92.3799 79.3425 91.8796 79.3425 91.2624C79.3425 90.6453 78.8422 90.1449 78.225 90.1449C77.6078 90.1449 77.1075 90.6453 77.1075 91.2624C77.1075 91.8796 77.6078 92.3799 78.225 92.3799Z" fill="#ECF0F1"/>
<path d="M81.95 92.3799C82.5672 92.3799 83.0675 91.8796 83.0675 91.2624C83.0675 90.6453 82.5672 90.1449 81.95 90.1449C81.3328 90.1449 80.8325 90.6453 80.8325 91.2624C80.8325 91.8796 81.3328 92.3799 81.95 92.3799Z" fill="#ECF0F1"/>
<path d="M117.337 70.7749H98.7125C97.6839 70.7749 96.85 71.6088 96.85 72.6374V91.2624C96.85 92.291 97.6839 93.1249 98.7125 93.1249H117.337C118.366 93.1249 119.2 92.291 119.2 91.2624V72.6374C119.2 71.6088 118.366 70.7749 117.337 70.7749Z" fill="#F39C12"/>
<path d="M104.3 77.1075C104.3 76.8005 104.65 76.6253 104.896 76.8095L111.353 81.652C111.551 81.801 111.551 82.099 111.353 82.248L104.896 87.0905C104.65 87.2747 104.3 87.0994 104.3 86.7925V77.1075Z" fill="#ECF0F1"/>
<path d="M60.4204 129.051H63.9628C64.7616 129.051 65.3706 129.112 65.7896 129.234C66.3528 129.4 66.8351 129.695 67.2367 130.118C67.6383 130.541 67.9439 131.061 68.1534 131.676C68.363 132.288 68.4677 133.043 68.4677 133.942C68.4677 134.732 68.3695 135.413 68.1731 135.985C67.933 136.683 67.5903 137.249 67.1451 137.681C66.8089 138.008 66.3549 138.264 65.7831 138.447C65.3553 138.582 64.7835 138.65 64.0676 138.65H60.4204V129.051ZM62.3586 130.675V137.033H63.8057C64.3469 137.033 64.7376 137.002 64.9777 136.941C65.292 136.862 65.5517 136.729 65.7569 136.542C65.9664 136.354 66.1367 136.046 66.2676 135.618C66.3986 135.186 66.4641 134.599 66.4641 133.857C66.4641 133.115 66.3986 132.545 66.2676 132.148C66.1367 131.751 65.9533 131.441 65.7176 131.218C65.4819 130.995 65.1829 130.845 64.8206 130.766C64.5499 130.705 64.0195 130.675 63.2294 130.675H62.3586Z" fill="#17476A"/>
<path d="M78.774 138.65H76.6656L75.8275 136.469H71.9905L71.1982 138.65H69.1422L72.881 129.051H74.9305L78.774 138.65ZM75.2055 134.852L73.8828 131.29L72.5863 134.852H75.2055Z" fill="#17476A"/>
<path d="M79.7824 138.65V129.051H82.6831L84.4248 135.599L86.1469 129.051H89.0542V138.65H87.2535V131.094L85.3481 138.65H83.4819L81.5831 131.094V138.65H79.7824Z" fill="#17476A"/>
</svg>
